<?xml version="1.0" encoding="utf-8"?>
<!-- Generator: Adobe Illustrator 23.0.2, SVG Export Plug-In . SVG Version: 6.00 Build 0)  -->
<svg version="1.1" id="Capa_1" xmlns="http://www.w3.org/2000/svg" xmlns:xlink="http://www.w3.org/1999/xlink" x="0px" y="0px"
	 viewBox="0 0 1080 545.4" style="enable-background:new 0 0 1080 545.4;" xml:space="preserve">
<style type="text/css">
	.st0{fill:#4165AD;}
	.st1{fill:url(#SVGID_1_);}
	.st2{fill:url(#SVGID_2_);}
	.st3{fill:#FF4713;}
</style>
<g>
	<path class="st0" d="M425.5,192.6c1.6-11.6,3-23.2,4.4-34.8c0.4-3.1,1.7-4.5,5-4.4c6.3,0.2,12.6-0.1,18.9,0.1c3.7,0.1,5.3-1,5.7-5
		c1.2-12.3,3.2-24.5,4.5-36.8c0.4-4,2.1-4.9,5.8-4.8c8,0.2,16,0.1,24.1,0.1c8,0,16.1,0.2,24.1-0.1c3.9-0.1,4.7,1.2,4.2,4.9
		c-1.7,12.2-2.8,24.5-4.5,36.8c-0.5,3.9,0.6,5,4.4,4.9c10.4-0.2,20.8,0.1,31.2-0.1c4.2-0.1,5.8,1.1,5.2,5.5
		c-1.6,11.4-2.9,22.8-4.1,34.2c-0.4,3.4-2.1,4.2-5.2,4.1c-10.6-0.1-21.2,0.1-31.9-0.1c-3.8-0.1-5.7,0.6-6.2,5.1
		c-2.5,22.4-5.7,44.7-8.2,67.1c-1.5,13.3,4.9,19.9,18.3,20.3c5.2,0.1,10.4-0.2,15.4-1.7c2.8-0.8,3.4,0.1,3.1,2.8
		c-1.3,11.8-2.6,23.7-3.8,35.5c-0.2,2.4-1.2,4.1-3.7,4.7c-20.3,5-40.7,6.9-60.8,0c-17.7-6.1-27-20.7-27.5-41.4
		c-0.4-15.9,2.9-31.5,4.5-47.2c1.4-13.3,3-26.7,4.9-40c0.6-4.3-0.8-5.3-4.7-5.1c-6.1,0.2-12.1-0.1-18.2,0.1
		C426.7,197.4,425,196.6,425.5,192.6"/>
	<linearGradient id="SVGID_1_" gradientUnits="userSpaceOnUse" x1="344.6306" y1="356.6539" x2="782.607" y2="20.6459">
		<stop  offset="0.2653" style="stop-color:#4165AD"/>
		<stop  offset="0.7776" style="stop-color:#4092C7"/>
	</linearGradient>
	<path class="st1" d="M756.9,252.4c-3.3,26-7,52-9.9,78c-0.8,7-3.2,10.1-10.2,11.2c-14.4,2.3-28.4,3.3-41.3-5.3
		c-3.5-2.3-3.8,1.6-4.8,3.1c-13.6,20-29,38.4-47.4,54.1c-31.5,26.8-68.3,41.2-108.9,46.9c-28.9,4-57.5,3.6-85.7-4.4
		c-47.7-13.7-79.8-45.3-101-89.1c-12-24.8-13.7-51.1-11.2-78c1.4-15.1,2.4-30.2,3-45.4c0.5-9.6-1-19.3-10.8-24
		c-10.6-5.2-21.3-3.2-30.7,3.7c-10.5,7.6-15.1,18.8-16.8,31.2c-3.8,29-7.2,58-10.7,87.1c-1.1,9.5-1,9.5-10.8,9.5
		c-14.5,0-29.1-0.2-43.6,0.1c-4.7,0.1-6.4-0.7-5.7-6c5.3-41,10.3-82.1,15.4-123.2c1.8-14.6,3.8-29.2,5.4-43.9
		c0.4-3.3,1.5-4.4,4.8-4.4c16,0.1,32.1,0.2,48.1,0c4.5-0.1,5,1.9,4.4,5.6c-0.9,5.7-1.5,11.4-2.2,17.1c10.8-12.6,23.9-21.3,39.7-25
		c22.2-5.2,43.2-3.7,60.3,13.7c10,10.1,13.3,23,14.4,36.7c1,14-1.8,27.6-3.2,41.4c-2,19.2-5.6,38.5-2.6,57.6
		c6.6,41,29.7,70.2,69.6,81.9c61.8,18.1,118.7,7.1,168.2-35.8c4.2-3.6,8-7.6,11.7-13.3c-14.5,1-27.3-1-40-8.5
		C657,286.2,709.1,248,762.4,208.9C760.4,224.3,758.7,238.3,756.9,252.4"/>
	<linearGradient id="SVGID_2_" gradientUnits="userSpaceOnUse" x1="564.3992" y1="230.8798" x2="769.054" y2="230.8798">
		<stop  offset="0" style="stop-color:#4165AD"/>
		<stop  offset="1" style="stop-color:#4092C7"/>
	</linearGradient>
	<path class="st2" d="M768.9,154.9c-1.4,10.5-2.7,21.1-3.9,31.6c-0.2,1.9-1.1,3.2-2.5,4.3c-18,13.2-36,26.4-54.7,40.2
		c-1.4-7.1-2.5-13.1-5.3-18.5c-4.3-8.2-10.7-13.3-20-15c-31.5-5.5-63,18.2-65.3,50.1c-1,13.4,3.7,25.3,14.8,33.7
		c3,2.3,3,3.3,0.1,5.4c-12.5,9-24.9,18.1-37.2,27.3c-2.9,2.2-4.5,1.9-6.9-0.6c-13.2-14.1-21.3-30.6-23-49.8
		c-5.6-64.3,45.2-118.5,109.6-117.3c14.5,0.3,28.1,4.2,41.8,12.3c-1.6-10.4,5.2-8.4,10.6-8.4c12.6,0,25.1,0.1,37.7-0.1
		C768.3,150,769.4,151.2,768.9,154.9"/>
	<path class="st0" d="M957.9,176.2c-10.8,10.3-21.1,21.2-31.6,31.8c-1.7,1.7-2.7,3.3-5.6,0.6c-17-16.1-40.5-15.8-57.5,1.1
		c-14.4,14.3-20.3,31.7-15.1,51.7c5.1,19.6,23.7,29.5,45.1,24.8c7.5-1.6,14.6-4.4,20.4-9.5c2.4-2.1,3.7-1.9,5.5,0.7
		c7.6,11.1,15.3,22.1,23.2,32.9c2.9,3.9,0.2,5.3-2.3,7.1c-16.6,12.2-39.8,19-65,19c-23.6,0-45.6-5.2-63.9-21.2
		c-18.6-16.2-25.9-37.4-25.4-61.5c1.4-62.9,51-106.3,114-105.8c20.9,0.2,40.7,5.4,57.5,19C961.1,170.1,962.2,172.1,957.9,176.2"/>
	<path class="st0" d="M173.7,178.3c-12.7,0-24.3-4.4-33.5-11.7c-1.9,15.3-5.1,40.9-5.1,40.9c-0.3,2-0.5,3.9-0.7,5.9
		c-4.6,37.4-9.1,74.8-13.9,112.2c-0.5,4.2,0.4,5.3,4.5,5.2c8-0.2,16-0.1,24.1-0.1c8.2,0,16.5-0.2,24.7,0.1c4.1,0.1,5.5-1.2,6-5.4
		c3-26,6.4-52,9.7-78c1.7-13.3,3.3-26.6,5-39.9c0,0,2.5-20.6,4.4-35.4C191.3,176.1,182.8,178.3,173.7,178.3z"/>
	<circle class="st3" cx="172.9" cy="133.5" r="29.5"/>
</g>
</svg>
